<svg width="33" height="32" viewBox="0 0 33 32" fill="none" xmlns="http://www.w3.org/2000/svg">
<g clip-path="url(#clip0_15433_749)">
<path d="M24.5808 4C25.9186 4 27.0373 4.98814 27.2211 6.29193L27.2422 6.50032L28.4089 25.1669C28.5007 26.6354 27.3892 27.8867 25.9462 27.9927L25.7474 28H7.25266C5.78136 28 4.60187 26.8125 4.58606 25.3657L4.5912 25.1669L5.75786 6.50032C5.84131 5.16516 6.89732 4.11027 8.21003 4.00811L8.41933 4H24.5808ZM24.5808 6.66667H8.41933L7.25266 25.3333H25.7474L24.5808 6.66667ZM20.5 9.33333C21.2364 9.33333 21.8333 9.93029 21.8333 10.6667C21.8333 13.6121 19.4454 16 16.5 16C13.5544 16 11.1666 13.6121 11.1666 10.6667C11.1666 9.93029 11.7636 9.33333 12.5 9.33333C13.2363 9.33333 13.8333 9.93029 13.8333 10.6667C13.8333 12.1394 15.0272 13.3333 16.5 13.3333C17.9058 13.3333 19.0575 12.2455 19.1593 10.8657L19.1666 10.6667C19.1666 9.93029 19.7636 9.33333 20.5 9.33333Z" fill="#99A3AF"/>
</g>
<defs>
<clipPath id="clip0_15433_749">
<rect width="32" height="32" fill="white" transform="translate(0.5)"/>
</clipPath>
</defs>
</svg>
